<svg width="30" height="30" viewBox="0 0 30 30" fill="none" xmlns="http://www.w3.org/2000/svg">
<path d="M14.9997 29.9997C23.1913 29.9997 30 23.1912 30 14.9997C30 6.79381 23.1763 -0.000305176 14.9846 -0.000305176C6.77919 -0.000305176 0 6.79381 0 14.9997C0 23.1912 6.79363 29.9997 14.9997 29.9997ZM11.1621 18.6615C7.51459 15.0286 5.19107 10.3967 7.94127 7.64652C8.10316 7.48464 8.27948 7.32338 8.44136 7.1615C9.27966 6.36713 10.0885 6.41168 10.8088 7.42628L12.7207 10.1469C13.3676 11.0881 13.2058 11.6171 12.5149 12.3525L11.9119 13.0144C11.6917 13.2202 11.7801 13.4994 11.8824 13.6764C12.1623 14.2053 12.956 15.1465 13.8087 15.9999C14.6916 16.8821 15.5883 17.6319 16.1473 17.9406C16.3531 18.0586 16.6474 18.088 16.8388 17.9117L17.4707 17.3087C18.1766 16.6173 18.7507 16.441 19.6624 17.0879C20.5835 17.7428 21.5101 18.39 22.4421 19.0292C23.3683 19.7056 23.5885 20.5439 22.6473 21.3966C22.486 21.5585 22.3386 21.7355 22.1767 21.8967C19.4271 24.6324 14.8089 22.3083 11.1621 18.6615Z" fill="#444444"/>
</svg>
