<svg width="30" height="30" viewBox="0 0 30 30" fill="none" xmlns="http://www.w3.org/2000/svg">
<path d="M10.8667 21.6033H19.1333C19.6956 21.6033 20.1728 21.4067 20.565 21.0133C20.9572 20.6211 21.1533 20.1444 21.1533 19.5833V14.6483C21.1533 14.0872 20.9572 13.61 20.565 13.2167C20.1728 12.8244 19.6961 12.6283 19.135 12.6283H18.6533V9.615C18.6533 8.59278 18.3011 7.72833 17.5967 7.02167C16.8911 6.315 16.0278 5.96167 15.0067 5.96167C13.9856 5.96167 13.12 6.315 12.41 7.02167C11.7 7.72833 11.3456 8.59278 11.3467 9.615V10.385H12.82V9.615C12.82 9.015 13.0333 8.50167 13.46 8.075C13.8867 7.64833 14.4 7.435 15 7.435C15.6 7.435 16.1133 7.64833 16.54 8.075C16.9667 8.50167 17.18 9.015 17.18 9.615V12.6283H10.865C10.3039 12.6283 9.82722 12.8244 9.435 13.2167C9.04278 13.61 8.84667 14.0872 8.84667 14.6483V19.5833C8.84667 20.1444 9.04278 20.6211 9.435 21.0133C9.82833 21.4056 10.305 21.6017 10.865 21.6017M15.005 30C12.9317 30 10.9817 29.6067 9.155 28.82C7.32944 28.0322 5.74111 26.9633 4.39 25.6133C3.03889 24.2633 1.96944 22.6767 1.18167 20.8533C0.393889 19.03 0 17.0806 0 15.005C0 12.9294 0.393889 10.9794 1.18167 9.155C1.96833 7.32944 3.03556 5.74111 4.38333 4.39C5.73111 3.03889 7.31833 1.96944 9.145 1.18167C10.9717 0.393889 12.9217 0 14.995 0C17.0683 0 19.0183 0.393889 20.845 1.18167C22.6706 1.96833 24.2589 3.03611 25.61 4.385C26.9611 5.73389 28.0306 7.32111 28.8183 9.14667C29.6061 10.9722 30 12.9217 30 14.995C30 17.0683 29.6067 19.0183 28.82 20.845C28.0333 22.6717 26.9644 24.26 25.6133 25.61C24.2622 26.96 22.6756 28.0294 20.8533 28.8183C19.0311 29.6072 17.0817 30.0011 15.005 30Z" fill="#444444"/>
</svg>
