<svg width="120" height="120" viewBox="0 0 120 120" fill="none" xmlns="http://www.w3.org/2000/svg">
<rect width="120" height="120" rx="20" fill="#C61F4C"/>
<path d="M84.1656 52.3969L77.3625 29.2937C77.2101 28.7761 76.8943 28.3217 76.4622 27.9984C76.0302 27.6751 75.5052 27.5003 74.9656 27.5H45.0344C44.4948 27.5003 43.9698 27.6751 43.5378 27.9984C43.1057 28.3217 42.7899 28.7761 42.6375 29.2937L35.8344 52.3969C34.767 55.938 34.7111 59.707 35.6731 63.2782C36.6351 66.8494 38.5765 70.0804 41.2781 72.6062C45.7223 76.7737 51.4323 79.3355 57.5 79.8844V92.5H47.5C46.837 92.5 46.2011 92.7634 45.7322 93.2322C45.2634 93.7011 45 94.337 45 95C45 95.663 45.2634 96.2989 45.7322 96.7678C46.2011 97.2366 46.837 97.5 47.5 97.5H72.5C73.163 97.5 73.7989 97.2366 74.2678 96.7678C74.7366 96.2989 75 95.663 75 95C75 94.337 74.7366 93.7011 74.2678 93.2322C73.7989 92.7634 73.163 92.5 72.5 92.5H62.5V79.8844C68.5677 79.3355 74.2777 76.7737 78.7219 72.6062C81.4229 70.08 83.3639 66.8489 84.3258 63.2779C85.2878 59.7069 85.2323 55.938 84.1656 52.3969ZM46.9031 32.5H73.0969L79.375 53.8094C79.4031 53.9031 79.4281 53.9969 79.4531 54.0906C72.7594 56.4906 65.2219 53.5906 61.1312 51.5187C53.2594 47.5344 47.0094 47.0281 42.4 47.7906L46.9031 32.5Z" fill="white"/>
</svg>
