<svg width="386" height="190" viewBox="0 0 386 190" fill="none" xmlns="http://www.w3.org/2000/svg">
<path fill-rule="evenodd" clip-rule="evenodd" d="M0 162.451C33.7181 182.805 120.144 211.301 196.103 162.451C291.051 101.39 345.042 114.475 386 162.451V27V26.6209H386C385.795 -79.7957 299.465 -166 193 -166C86.5354 -166 0.204917 -79.7957 0.000364254 26.6209H0V27V162.451Z" fill="#C61F4C"/>
<path fill-rule="evenodd" clip-rule="evenodd" d="M0 132.451C33.7181 152.805 120.144 181.301 196.103 132.451C291.051 71.3901 345.042 84.4746 386 132.451V-3.00003V-3.37906H386C385.795 -109.796 299.465 -196 193 -196C86.5354 -196 0.204917 -109.796 0.000364254 -3.37906H0V-3.00003V132.451Z" fill="#DC2455"/>
<path fill-rule="evenodd" clip-rule="evenodd" d="M-0.349223 153.485C39.5537 165.016 135.37 170.453 199.413 99.9591C279.467 11.8419 338.037 10.4341 392.854 48.1267L355.883 -89.8527L355.78 -90.2388L355.779 -90.2387C326.524 -198.586 215.053 -262.835 106.602 -233.775C-1.84962 -204.716 -66.2618 -93.3388 -37.4238 15.1197L-37.4241 15.1198L-0.349223 153.485Z" fill="#E82E5F"/>
<path fill-rule="evenodd" clip-rule="evenodd" d="M-0.709484 122.337C40.3684 134.207 139.006 139.804 204.935 67.2346C287.346 -23.4771 347.64 -24.9264 404.072 13.8761L366.012 -128.166L365.905 -128.564L365.905 -128.563C335.789 -240.1 221.035 -306.241 109.391 -276.326C-2.25408 -246.411 -68.5629 -131.755 -38.8757 -20.1028L-38.8761 -20.1027L-38.7811 -19.7483C-38.7773 -19.7339 -38.7734 -19.7196 -38.7696 -19.7052C-38.7657 -19.6908 -38.7619 -19.6765 -38.758 -19.6621L-0.709484 122.337Z" fill="#FB3D6F"/>
</svg>
