<svg width="91" height="114" viewBox="0 0 91 114" fill="none" xmlns="http://www.w3.org/2000/svg">
<path d="M69.1656 32.3969L62.3625 9.29375C62.2101 8.77614 61.8943 8.32174 61.4623 7.99843C61.0302 7.67513 60.5052 7.50028 59.9656 7.5H30.0344C29.4948 7.50028 28.9698 7.67513 28.5378 7.99843C28.1058 8.32174 27.7899 8.77614 27.6375 9.29375L20.8344 32.3969C19.767 35.938 19.7112 39.707 20.6731 43.2782C21.6351 46.8494 23.5765 50.0804 26.2781 52.6062C30.7223 56.7737 36.4323 59.3355 42.5 59.8844V72.5H32.5C31.837 72.5 31.2011 72.7634 30.7322 73.2322C30.2634 73.7011 30 74.337 30 75C30 75.663 30.2634 76.2989 30.7322 76.7678C31.2011 77.2366 31.837 77.5 32.5 77.5H57.5C58.1631 77.5 58.7989 77.2366 59.2678 76.7678C59.7366 76.2989 60 75.663 60 75C60 74.337 59.7366 73.7011 59.2678 73.2322C58.7989 72.7634 58.1631 72.5 57.5 72.5H47.5V59.8844C53.5677 59.3355 59.2777 56.7737 63.7219 52.6062C66.4229 50.08 68.3639 46.8489 69.3258 43.2779C70.2878 39.7069 70.2323 35.938 69.1656 32.3969ZM31.9031 12.5H58.0969L64.375 33.8094C64.4031 33.9031 64.4281 33.9969 64.4531 34.0906C57.7594 36.4906 50.2219 33.5906 46.1313 31.5187C38.2594 27.5344 32.0094 27.0281 27.4 27.7906L31.9031 12.5Z" fill="white"/>
<path d="M6 103.42L8.8 94.92H11.78L7.68 106H4.28L0.2 94.92H3.2L6 103.42ZM14.7727 93.6C14.2793 93.6 13.866 93.4467 13.5327 93.14C13.2127 92.82 13.0527 92.4267 13.0527 91.96C13.0527 91.4933 13.2127 91.1067 13.5327 90.8C13.866 90.48 14.2793 90.32 14.7727 90.32C15.266 90.32 15.6727 90.48 15.9927 90.8C16.326 91.1067 16.4927 91.4933 16.4927 91.96C16.4927 92.4267 16.326 92.82 15.9927 93.14C15.6727 93.4467 15.266 93.6 14.7727 93.6ZM16.1527 94.92V106H13.3527V94.92H16.1527ZM25.0591 94.76C26.3791 94.76 27.4457 95.18 28.2591 96.02C29.0724 96.8467 29.4791 98.0067 29.4791 99.5V106H26.6791V99.88C26.6791 99 26.4591 98.3267 26.0191 97.86C25.5791 97.38 24.9791 97.14 24.2191 97.14C23.4457 97.14 22.8324 97.38 22.3791 97.86C21.9391 98.3267 21.7191 99 21.7191 99.88V106H18.9191V94.92H21.7191V96.3C22.0924 95.82 22.5657 95.4467 23.1391 95.18C23.7257 94.9 24.3657 94.76 25.0591 94.76ZM37.0617 106.18C35.9951 106.18 35.0351 105.947 34.1817 105.48C33.3284 105 32.6551 104.327 32.1617 103.46C31.6817 102.593 31.4417 101.593 31.4417 100.46C31.4417 99.3267 31.6884 98.3267 32.1817 97.46C32.6884 96.5933 33.3751 95.9267 34.2417 95.46C35.1084 94.98 36.0751 94.74 37.1417 94.74C38.2084 94.74 39.1751 94.98 40.0417 95.46C40.9084 95.9267 41.5884 96.5933 42.0817 97.46C42.5884 98.3267 42.8417 99.3267 42.8417 100.46C42.8417 101.593 42.5817 102.593 42.0617 103.46C41.5551 104.327 40.8617 105 39.9817 105.48C39.1151 105.947 38.1417 106.18 37.0617 106.18ZM37.0617 103.74C37.5684 103.74 38.0417 103.62 38.4817 103.38C38.9351 103.127 39.2951 102.753 39.5617 102.26C39.8284 101.767 39.9617 101.167 39.9617 100.46C39.9617 99.4067 39.6817 98.6 39.1217 98.04C38.5751 97.4667 37.9017 97.18 37.1017 97.18C36.3017 97.18 35.6284 97.4667 35.0817 98.04C34.5484 98.6 34.2817 99.4067 34.2817 100.46C34.2817 101.513 34.5417 102.327 35.0617 102.9C35.5951 103.46 36.2617 103.74 37.0617 103.74ZM48.1556 97.22V102.58C48.1556 102.953 48.2423 103.227 48.4156 103.4C48.6023 103.56 48.909 103.64 49.3356 103.64H50.6356V106H48.8756C46.5156 106 45.3356 104.853 45.3356 102.56V97.22H44.0156V94.92H45.3356V92.18H48.1556V94.92H50.6356V97.22H48.1556ZM54.0695 93.6C53.5762 93.6 53.1629 93.4467 52.8295 93.14C52.5095 92.82 52.3495 92.4267 52.3495 91.96C52.3495 91.4933 52.5095 91.1067 52.8295 90.8C53.1629 90.48 53.5762 90.32 54.0695 90.32C54.5629 90.32 54.9695 90.48 55.2895 90.8C55.6229 91.1067 55.7895 91.4933 55.7895 91.96C55.7895 92.4267 55.6229 92.82 55.2895 93.14C54.9695 93.4467 54.5629 93.6 54.0695 93.6ZM55.4495 94.92V106H52.6495V94.92H55.4495ZM64.3559 94.76C65.6759 94.76 66.7426 95.18 67.5559 96.02C68.3693 96.8467 68.7759 98.0067 68.7759 99.5V106H65.9759V99.88C65.9759 99 65.7559 98.3267 65.3159 97.86C64.8759 97.38 64.2759 97.14 63.5159 97.14C62.7426 97.14 62.1293 97.38 61.6759 97.86C61.2359 98.3267 61.0159 99 61.0159 99.88V106H58.2159V94.92H61.0159V96.3C61.3893 95.82 61.8626 95.4467 62.4359 95.18C63.0226 94.9 63.6626 94.76 64.3559 94.76ZM74.6986 97.22V102.58C74.6986 102.953 74.7853 103.227 74.9586 103.4C75.1453 103.56 75.4519 103.64 75.8786 103.64H77.1786V106H75.4186C73.0586 106 71.8786 104.853 71.8786 102.56V97.22H70.5586V94.92H71.8786V92.18H74.6986V94.92H77.1786V97.22H74.6986ZM84.1125 106.18C83.0458 106.18 82.0858 105.947 81.2325 105.48C80.3792 105 79.7058 104.327 79.2125 103.46C78.7325 102.593 78.4925 101.593 78.4925 100.46C78.4925 99.3267 78.7392 98.3267 79.2325 97.46C79.7392 96.5933 80.4258 95.9267 81.2925 95.46C82.1592 94.98 83.1258 94.74 84.1925 94.74C85.2592 94.74 86.2258 94.98 87.0925 95.46C87.9592 95.9267 88.6392 96.5933 89.1325 97.46C89.6392 98.3267 89.8925 99.3267 89.8925 100.46C89.8925 101.593 89.6325 102.593 89.1125 103.46C88.6058 104.327 87.9125 105 87.0325 105.48C86.1658 105.947 85.1925 106.18 84.1125 106.18ZM84.1125 103.74C84.6192 103.74 85.0925 103.62 85.5325 103.38C85.9858 103.127 86.3458 102.753 86.6125 102.26C86.8792 101.767 87.0125 101.167 87.0125 100.46C87.0125 99.4067 86.7325 98.6 86.1725 98.04C85.6258 97.4667 84.9525 97.18 84.1525 97.18C83.3525 97.18 82.6792 97.4667 82.1325 98.04C81.5992 98.6 81.3325 99.4067 81.3325 100.46C81.3325 101.513 81.5925 102.327 82.1125 102.9C82.6458 103.46 83.3125 103.74 84.1125 103.74Z" fill="white"/>
</svg>
