<svg width="60" height="60" viewBox="0 0 60 60" fill="none" xmlns="http://www.w3.org/2000/svg">
<circle cx="30" cy="30" r="30" fill="#C3E2D6"/>
<path d="M44.5389 22.8781C44.1889 21.5646 43.1611 20.5337 41.8555 20.1845C39.4889 19.5471 30 19.5471 30 19.5471C30 19.5471 20.5111 19.5471 18.1444 20.1845C16.8389 20.5337 15.8111 21.5646 15.4611 22.8781C14.8278 25.2558 14.8278 30.2108 14.8278 30.2108C14.8278 30.2108 14.8278 35.1658 15.4611 37.5435C15.8111 38.857 16.8389 39.8436 18.1444 40.1928C20.5111 40.8301 30 40.8301 30 40.8301C30 40.8301 39.4889 40.8301 41.8555 40.1928C43.1611 39.8436 44.1889 38.8515 44.5389 37.5435C45.1722 35.1658 45.1722 30.2108 45.1722 30.2108C45.1722 30.2108 45.1722 25.2558 44.5389 22.8781ZM26.9 34.7113V25.7103L34.8278 30.2108L26.9 34.7113Z" fill="#446758"/>
</svg>
