<svg width="42" height="42" viewBox="0 0 42 42" fill="none" xmlns="http://www.w3.org/2000/svg">
<rect width="42" height="42" rx="4" fill="#446758"/>
<g clip-path="url(#clip0_8_58)">
<path fill-rule="evenodd" clip-rule="evenodd" d="M5 26C5 25.2044 5.31607 24.4413 5.87868 23.8787C6.44129 23.3161 7.20435 23 8 23H10C10.7956 23 11.5587 23.3161 12.1213 23.8787C12.6839 24.4413 13 25.2044 13 26V28C13 28.7956 12.6839 29.5587 12.1213 30.1213C11.5587 30.6839 10.7956 31 10 31H8C7.20435 31 6.44129 30.6839 5.87868 30.1213C5.31607 29.5587 5 28.7956 5 28V26ZM8 25C7.73478 25 7.48043 25.1054 7.29289 25.2929C7.10536 25.4804 7 25.7348 7 26V28C7 28.2652 7.10536 28.5196 7.29289 28.7071C7.48043 28.8946 7.73478 29 8 29H10C10.2652 29 10.5196 28.8946 10.7071 28.7071C10.8946 28.5196 11 28.2652 11 28V26C11 25.7348 10.8946 25.4804 10.7071 25.2929C10.5196 25.1054 10.2652 25 10 25H8ZM29 26C29 25.2044 29.3161 24.4413 29.8787 23.8787C30.4413 23.3161 31.2044 23 32 23H34C34.7956 23 35.5587 23.3161 36.1213 23.8787C36.6839 24.4413 37 25.2044 37 26V28C37 28.7956 36.6839 29.5587 36.1213 30.1213C35.5587 30.6839 34.7956 31 34 31H32C31.2044 31 30.4413 30.6839 29.8787 30.1213C29.3161 29.5587 29 28.7956 29 28V26ZM32 25C31.7348 25 31.4804 25.1054 31.2929 25.2929C31.1054 25.4804 31 25.7348 31 26V28C31 28.2652 31.1054 28.5196 31.2929 28.7071C31.4804 28.8946 31.7348 29 32 29H34C34.2652 29 34.5196 28.8946 34.7071 28.7071C34.8946 28.5196 35 28.2652 35 28V26C35 25.7348 34.8946 25.4804 34.7071 25.2929C34.5196 25.1054 34.2652 25 34 25H32ZM17 14C17 13.2044 17.3161 12.4413 17.8787 11.8787C18.4413 11.3161 19.2044 11 20 11H22C22.7956 11 23.5587 11.3161 24.1213 11.8787C24.6839 12.4413 25 13.2044 25 14V16C25 16.7956 24.6839 17.5587 24.1213 18.1213C23.5587 18.6839 22.7956 19 22 19H20C19.2044 19 18.4413 18.6839 17.8787 18.1213C17.3161 17.5587 17 16.7956 17 16V14ZM20 13C19.7348 13 19.4804 13.1054 19.2929 13.2929C19.1054 13.4804 19 13.7348 19 14V16C19 16.2652 19.1054 16.5196 19.2929 16.7071C19.4804 16.8946 19.7348 17 20 17H22C22.2652 17 22.5196 16.8946 22.7071 16.7071C22.8946 16.5196 23 16.2652 23 16V14C23 13.7348 22.8946 13.4804 22.7071 13.2929C22.5196 13.1054 22.2652 13 22 13H20Z" fill="white"/>
<path d="M17 14H8.73199C8.51186 13.6187 8.17206 13.3207 7.76531 13.1522C7.35855 12.9838 6.90757 12.9542 6.4823 13.0681C6.05703 13.1821 5.68125 13.4332 5.41323 13.7825C5.14521 14.1318 4.99994 14.5597 4.99994 15C4.99994 15.4403 5.14521 15.8682 5.41323 16.2175C5.68125 16.5668 6.05703 16.8179 6.4823 16.9319C6.90757 17.0458 7.35855 17.0162 7.76531 16.8478C8.17206 16.6793 8.51186 16.3813 8.73199 16H14.068C11.4928 17.6264 9.56817 20.103 8.62799 23H9.99999C10.248 23 10.4867 23.0287 10.716 23.086C11.2703 21.6361 12.1241 20.3193 13.2217 19.2217C14.3193 18.1241 15.6361 17.2703 17.086 16.716C17.0286 16.4817 16.9998 16.2413 17 16V14ZM24.914 16.716C24.9713 16.4817 25.0002 16.2413 25 16V14H33.268C33.4881 13.6187 33.8279 13.3207 34.2347 13.1522C34.6414 12.9838 35.0924 12.9542 35.5177 13.0681C35.9429 13.1821 36.3187 13.4332 36.5867 13.7825C36.8548 14.1318 37 14.5597 37 15C37 15.4403 36.8548 15.8682 36.5867 16.2175C36.3187 16.5668 35.9429 16.8179 35.5177 16.9319C35.0924 17.0458 34.6414 17.0162 34.2347 16.8478C33.8279 16.6793 33.4881 16.3813 33.268 16H27.932C30.5072 17.6264 32.4318 20.103 33.372 23H32C31.7533 23 31.5147 23.0287 31.284 23.086C30.7297 21.6361 29.8759 20.3193 28.7783 19.2217C27.6807 18.1241 26.3639 17.2703 24.914 16.716Z" fill="white"/>
</g>
<defs>
<clipPath id="clip0_8_58">
<rect width="32" height="32" fill="white" transform="translate(5 5)"/>
</clipPath>
</defs>
</svg>
